<?xml version="1.0" encoding="utf-8"?>
<svg viewBox="0 0 500 500" xmlns="http://www.w3.org/2000/svg">
  <g transform="matrix(1, 0, 0, 1, -92.150993, 12.293304)">
    <title>LOGO</title>
    <ellipse style="fill: rgb(249, 115, 22);" cx="286.163" cy="180.33" rx="45.988" ry="45.988"/>
    <path d="M 253.684 178.341 C 267.223 178.341 304.561 180.299 317.612 180.299 C 329.856 180.299 322.53 216.628 285.651 216.628 C 248.773 216.628 243.528 178.341 253.684 178.341 Z" style="fill: rgb(255, 255, 255);"/>
  </g>
  <g transform="matrix(1, 0, 0, 1, 19.825016, 15.070709)">
    <title>LOGO</title>
    <ellipse style="fill: rgb(236, 199, 52);" cx="286.163" cy="180.33" rx="45.988" ry="45.988"/>
    <path d="M 253.684 178.341 C 267.223 178.341 304.561 180.299 317.612 180.299 C 329.856 180.299 322.53 216.628 285.651 216.628 C 248.773 216.628 243.528 178.341 253.684 178.341 Z" style="fill: rgb(255, 255, 255);"/>
  </g>
  <g transform="matrix(0, 1, -1, 0, 374.34198, 18.436325)">
    <title>LOGO</title>
    <ellipse style="fill: rgb(249, 115, 22);" cx="286.163" cy="180.33" rx="45.988" ry="45.988"/>
    <path d="M 253.684 178.341 C 267.223 178.341 304.561 180.299 317.612 180.299 C 329.856 180.299 322.53 216.628 285.651 216.628 C 248.773 216.628 243.528 178.341 253.684 178.341 Z" style="fill: rgb(255, 255, 255);"/>
  </g>
  <g transform="matrix(0, 1, -1, 0, 486.317993, 21.21373)">
    <title>LOGO</title>
    <ellipse style="fill: rgb(236, 199, 52);" cx="286.163" cy="180.33" rx="45.988" ry="45.988"/>
    <path d="M 253.684 178.341 C 267.223 178.341 304.561 180.299 317.612 180.299 C 329.856 180.299 322.53 216.628 285.651 216.628 C 248.773 216.628 243.528 178.341 253.684 178.341 Z" style="fill: rgb(255, 255, 255);"/>
  </g>
  <g transform="matrix(-1, 0, 0, -1, 480.174988, 596.905396)">
    <title>LOGO</title>
    <ellipse style="fill: rgb(249, 115, 22);" cx="286.163" cy="180.33" rx="45.988" ry="45.988"/>
    <path d="M 253.684 178.341 C 267.223 178.341 304.561 180.299 317.612 180.299 C 329.856 180.299 322.53 216.628 285.651 216.628 C 248.773 216.628 243.528 178.341 253.684 178.341 Z" style="fill: rgb(255, 255, 255);"/>
  </g>
  <g transform="matrix(-1, 0, 0, -1, 592.151001, 599.682739)">
    <title>LOGO</title>
    <ellipse style="fill: rgb(236, 199, 52);" cx="286.163" cy="180.33" rx="45.988" ry="45.988"/>
    <path d="M 253.684 178.341 C 267.223 178.341 304.561 180.299 317.612 180.299 C 329.856 180.299 322.53 216.628 285.651 216.628 C 248.773 216.628 243.528 178.341 253.684 178.341 Z" style="fill: rgb(255, 255, 255);"/>
  </g>
  <g transform="matrix(0, 1, 1, 0, 13.681976, -205.515686)">
    <title>LOGO</title>
    <ellipse style="fill: rgb(249, 115, 22);" cx="286.163" cy="180.33" rx="45.988" ry="45.988"/>
    <path d="M 253.684 178.341 C 267.223 178.341 304.561 180.299 317.612 180.299 C 329.856 180.299 322.53 216.628 285.651 216.628 C 248.773 216.628 243.528 178.341 253.684 178.341 Z" style="fill: rgb(255, 255, 255);"/>
  </g>
  <g transform="matrix(0, 1, 1, 0, 125.657974, -202.738281)">
    <title>LOGO</title>
    <ellipse style="fill: rgb(236, 199, 52);" cx="286.163" cy="180.33" rx="45.988" ry="45.988"/>
    <path d="M 253.684 178.341 C 267.223 178.341 304.561 180.299 317.612 180.299 C 329.856 180.299 322.53 216.628 285.651 216.628 C 248.773 216.628 243.528 178.341 253.684 178.341 Z" style="fill: rgb(255, 255, 255);"/>
  </g>
  <g transform="matrix(1, 0, 0, 1, 130.916473, 15.070709)">
    <title>LOGO</title>
    <ellipse style="fill: rgb(236, 199, 52);" cx="286.163" cy="180.33" rx="45.988" ry="45.988"/>
    <path d="M 253.684 178.341 C 267.223 178.341 304.561 180.299 317.612 180.299 C 329.856 180.299 322.53 216.628 285.651 216.628 C 248.773 216.628 243.528 178.341 253.684 178.341 Z" style="fill: rgb(249, 115, 22);"/>
  </g>
  <g transform="matrix(0, 1, -1, 0, 597.409485, 21.21373)">
    <title>LOGO</title>
    <ellipse style="fill: rgb(236, 199, 52);" cx="286.163" cy="180.33" rx="45.988" ry="45.988"/>
    <path d="M 253.684 178.341 C 267.223 178.341 304.561 180.299 317.612 180.299 C 329.856 180.299 322.53 216.628 285.651 216.628 C 248.773 216.628 243.528 178.341 253.684 178.341 Z" style="fill: rgb(249, 115, 22);"/>
  </g>
  <g transform="matrix(-1, 0, 0, -1, 703.242493, 599.682739)">
    <title>LOGO</title>
    <ellipse style="fill: rgb(236, 199, 52);" cx="286.163" cy="180.33" rx="45.988" ry="45.988"/>
    <path d="M 253.684 178.341 C 267.223 178.341 304.561 180.299 317.612 180.299 C 329.856 180.299 322.53 216.628 285.651 216.628 C 248.773 216.628 243.528 178.341 253.684 178.341 Z" style="fill: rgb(249, 115, 22);"/>
  </g>
  <g transform="matrix(0, 1, 1, 0, 236.749435, -202.738281)">
    <title>LOGO</title>
    <ellipse style="fill: rgb(236, 199, 52);" cx="286.163" cy="180.33" rx="45.988" ry="45.988"/>
    <path d="M 253.684 178.341 C 267.223 178.341 304.561 180.299 317.612 180.299 C 329.856 180.299 322.53 216.628 285.651 216.628 C 248.773 216.628 243.528 178.341 253.684 178.341 Z" style="fill: rgb(249, 115, 22);"/>
  </g>
  <g transform="matrix(1, 0, 0, 1, -203.51622, 12.293304)">
    <title>LOGO</title>
    <ellipse style="fill: rgb(249, 115, 22);" cx="286.163" cy="180.33" rx="45.988" ry="45.988"/>
    <path d="M 253.684 178.341 C 267.223 178.341 304.561 180.299 317.612 180.299 C 329.856 180.299 322.53 216.628 285.651 216.628 C 248.773 216.628 243.528 178.341 253.684 178.341 Z" style="fill: rgb(236, 199, 52);"/>
  </g>
  <g transform="matrix(0, 1, -1, 0, 262.976746, 18.436325)">
    <title>LOGO</title>
    <ellipse style="fill: rgb(249, 115, 22);" cx="286.163" cy="180.33" rx="45.988" ry="45.988"/>
    <path d="M 253.684 178.341 C 267.223 178.341 304.561 180.299 317.612 180.299 C 329.856 180.299 322.53 216.628 285.651 216.628 C 248.773 216.628 243.528 178.341 253.684 178.341 Z" style="fill: rgb(236, 199, 52);"/>
  </g>
  <g transform="matrix(-1, 0, 0, -1, 368.809753, 596.905396)">
    <title>LOGO</title>
    <ellipse style="fill: rgb(249, 115, 22);" cx="286.163" cy="180.33" rx="45.988" ry="45.988"/>
    <path d="M 253.684 178.341 C 267.223 178.341 304.561 180.299 317.612 180.299 C 329.856 180.299 322.53 216.628 285.651 216.628 C 248.773 216.628 243.528 178.341 253.684 178.341 Z" style="fill: rgb(236, 199, 52);"/>
  </g>
  <g transform="matrix(0, 1, 1, 0, -97.68325, -205.515686)">
    <title>LOGO</title>
    <ellipse style="fill: rgb(249, 115, 22);" cx="286.163" cy="180.33" rx="45.988" ry="45.988"/>
    <path d="M 253.684 178.341 C 267.223 178.341 304.561 180.299 317.612 180.299 C 329.856 180.299 322.53 216.628 285.651 216.628 C 248.773 216.628 243.528 178.341 253.684 178.341 Z" style="fill: rgb(236, 199, 52);"/>
  </g>
</svg>